<svg width="600" height="400" viewBox="0 0 600 400" xmlns="http://www.w3.org/2000/svg">
<rect x="0" y="0" width="600" height="400" fill="#1F1D1D"/>
<text font-size="18" x="220" y="5" dy="15" font-weight="bold" dominant-baseline="middle" font-family="Roboto" fill="#D8D9DA">
Mixed Line and Bar
</text>
<g>
<line stroke-width="2" x1="128.5" y1="45" x2="153.5" y2="45" stroke="#7EB26D"/>
<circle cx="141" cy="45" r="5.5" stroke-width="2" stroke="#7EB26D" fill="#7EB26D"/>
<text font-size="14" x="156.5" y="49" font-family="Roboto" fill="#D8D9DA">
Evaporation
</text>
</g>
<g>
<line stroke-width="2" x1="237.5" y1="45" x2="262.5" y2="45" stroke="#EAB839"/>
<circle cx="250" cy="45" r="5.5" stroke-width="2" stroke="#EAB839" fill="#EAB839"/>
<text font-size="14" x="265.5" y="49" font-family="Roboto" fill="#D8D9DA">
Precipitation
</text>
</g>
<g>
<line stroke-width="2" x1="353.5" y1="45" x2="378.5" y2="45" stroke="#6ED0E0"/>
<circle cx="366" cy="45" r="5.5" stroke-width="2" stroke="#6ED0E0" fill="#6ED0E0"/>
<text font-size="14" x="381.5" y="49" font-family="Roboto" fill="#D8D9DA">
Temperature
</text>
</g>
<g stroke="#444343">
<line stroke-width="1" x1="54" y1="62" x2="555" y2="62"/><line stroke-width="1" x1="54" y1="112.5" x2="555" y2="112.5"/><line stroke-width="1" x1="54" y1="163" x2="555" y2="163"/><line stroke-width="1" x1="54" y1="213.5" x2="555" y2="213.5"/><line stroke-width="1" x1="54" y1="264" x2="555" y2="264"/><line stroke-width="1" x1="54" y1="314.5" x2="555" y2="314.5"/>
</g>
<g>

<text font-size="14" x="2" y="67" font-family="Roboto" fill="#B9B8CE">
180 ml
</text>
<text font-size="14" x="2" y="117.5" font-family="Roboto" fill="#B9B8CE">
150 ml
</text>
<text font-size="14" x="2" y="168" font-family="Roboto" fill="#B9B8CE">
120 ml
</text>
<text font-size="14" x="10" y="218.5" font-family="Roboto" fill="#B9B8CE">
90 ml
</text>
<text font-size="14" x="10" y="269" font-family="Roboto" fill="#B9B8CE">
60 ml
</text>
<text font-size="14" x="10" y="319.5" font-family="Roboto" fill="#B9B8CE">
30 ml
</text>
<text font-size="14" x="18" y="370" font-family="Roboto" fill="#B9B8CE">
0 ml
</text>
</g>
<g>

<text font-size="14" x="563" y="69" font-family="Roboto" fill="#B9B8CE">
24 °C
</text>
<text font-size="14" x="563" y="119.5" font-family="Roboto" fill="#B9B8CE">
20 °C
</text>
<text font-size="14" x="563" y="170" font-family="Roboto" fill="#B9B8CE">
16 °C
</text>
<text font-size="14" x="563" y="220.5" font-family="Roboto" fill="#B9B8CE">
12 °C
</text>
<text font-size="14" x="563" y="271" font-family="Roboto" fill="#B9B8CE">
8 °C
</text>
<text font-size="14" x="563" y="321.5" font-family="Roboto" fill="#B9B8CE">
4 °C
</text>
<text font-size="14" x="563" y="372" font-family="Roboto" fill="#B9B8CE">
0 °C
</text>
</g>
<g>
<g stroke="#B9B8CE">
<line stroke-width="1" x1="54" y1="365" x2="555" y2="365"/>
<line stroke-width="1" x1="54" y1="365" x2="54" y2="370"/>
<line stroke-width="1" x1="125.6" y1="365" x2="125.6" y2="370"/>
<line stroke-width="1" x1="197.1" y1="365" x2="197.1" y2="370"/>
<line stroke-width="1" x1="268.7" y1="365" x2="268.7" y2="370"/>
<line stroke-width="1" x1="340.3" y1="365" x2="340.3" y2="370"/>
<line stroke-width="1" x1="411.9" y1="365" x2="411.9" y2="370"/>
<line stroke-width="1" x1="483.4" y1="365" x2="483.4" y2="370"/>
<line stroke-width="1" x1="555" y1="365" x2="555" y2="370"/>
</g>
<text font-size="14" x="75.8" y="384" font-family="Roboto" fill="#B9B8CE">
Mon
</text>
<text font-size="14" x="149.4" y="384" font-family="Roboto" fill="#B9B8CE">
Tue
</text>
<text font-size="14" x="218.9" y="384" font-family="Roboto" fill="#B9B8CE">
Wed
</text>
<text font-size="14" x="292.5" y="384" font-family="Roboto" fill="#B9B8CE">
Thu
</text>
<text font-size="14" x="368.1" y="384" font-family="Roboto" fill="#B9B8CE">
Fri
</text>
<text font-size="14" x="436.6" y="384" font-family="Roboto" fill="#B9B8CE">
Sat
</text>
<text font-size="14" x="507.2" y="384" font-family="Roboto" fill="#B9B8CE">
Sun
</text>
</g>
<rect x="59" y="361.6" width="29.3" height="3.4" fill="#7EB26D"/>
<rect x="130.6" y="356.8" width="29.3" height="8.2" fill="#7EB26D"/>
<rect x="202.1" y="353.2" width="29.3" height="11.8" fill="#7EB26D"/>
<rect x="273.7" y="325.9" width="29.3" height="39.1" fill="#7EB26D"/>
<rect x="345.3" y="321.9" width="29.3" height="43.1" fill="#7EB26D"/>
<rect x="416.9" y="235.9" width="29.3" height="129.1" fill="#7EB26D"/>
<rect x="488.4" y="136.7" width="29.3" height="228.3" fill="#7EB26D"/>
<rect x="91.3" y="360.6" width="29.3" height="4.4" fill="#EAB839"/>
<rect x="162.9" y="355.1" width="29.3" height="9.9" fill="#EAB839"/>
<rect x="234.4" y="349.9" width="29.3" height="15.1" fill="#EAB839"/>
<rect x="306" y="320.6" width="29.3" height="44.4" fill="#EAB839"/>
<rect x="377.6" y="316.7" width="29.3" height="48.3" fill="#EAB839"/>
<rect x="449.1" y="246" width="29.3" height="119" fill="#EAB839"/>
<rect x="520.7" y="69.4" width="29.3" height="295.6" fill="#EAB839"/>
<g>
<path d="M 89.8 339.8 L 161.4 337.2 L 232.9 323.3 L 304.5 308.2 L 376.1 285.5 L 447.6 236.2 L 519.2 108.7" stroke-width="2" fill="none" stroke="#6ED0E0"/>
<circle cx="89.8" cy="339.8" r="2" stroke-width="2" stroke="#6ED0E0" fill="#1F1D1D"/>
<circle cx="161.4" cy="337.2" r="2" stroke-width="2" stroke="#6ED0E0" fill="#1F1D1D"/>
<circle cx="232.9" cy="323.3" r="2" stroke-width="2" stroke="#6ED0E0" fill="#1F1D1D"/>
<circle cx="304.5" cy="308.2" r="2" stroke-width="2" stroke="#6ED0E0" fill="#1F1D1D"/>
<circle cx="376.1" cy="285.5" r="2" stroke-width="2" stroke="#6ED0E0" fill="#1F1D1D"/>
<circle cx="447.6" cy="236.2" r="2" stroke-width="2" stroke="#6ED0E0" fill="#1F1D1D"/>
<circle cx="519.2" cy="108.7" r="2" stroke-width="2" stroke="#6ED0E0" fill="#1F1D1D"/>
</g>
<text font-size="14" x="89.8" y="339.8" dx="-4" dy="-8" font-family="Roboto" fill="#D8D9DA">
2
</text>
<text font-size="14" x="161.4" y="337.2" dx="-10" dy="-8" font-family="Roboto" fill="#D8D9DA">
2.2
</text>
<text font-size="14" x="232.9" y="323.3" dx="-9.5" dy="-8" font-family="Roboto" fill="#D8D9DA">
3.3
</text>
<text font-size="14" x="304.5" y="308.2" dx="-10" dy="-8" font-family="Roboto" fill="#D8D9DA">
4.5
</text>
<text font-size="14" x="376.1" y="285.5" dx="-9.5" dy="-8" font-family="Roboto" fill="#D8D9DA">
6.3
</text>
<text font-size="14" x="447.6" y="236.2" dx="-14" dy="-8" font-family="Roboto" fill="#D8D9DA">
10.2
</text>
<text font-size="14" x="519.2" y="108.7" dx="-13.5" dy="-8" font-family="Roboto" fill="#D8D9DA">
20.3
</text>
</svg>